<?xml version="1.0" standalone="no"?> <!DOCTYPE svg PUBLIC "-//W3C//DTD SVG 20010904//EN" "http://www.w3.org/TR/2001/REC-SVG-20010904/DTD/svg10.dtd"> <svg version="1.0" xmlns="http://www.w3.org/2000/svg" width="411.000000pt" height="425.000000pt" viewBox="0 0 411.000000 425.000000" preserveAspectRatio="xMidYMid meet"> <g transform="translate(0.000000,425.000000) scale(0.100000,-0.100000)" fill="#080808" stroke="none"> <path d="M2011 4230 c-272 -57 -317 -403 -74 -560 l23 -15 2 -325 1 -325 -322 -3 -323 -2 -145 122 c-189 160 -220 180 -289 186 -95 8 -143 -18 -235 -128 -26 -30 -93 -110 -150 -178 -137 -162 -159 -197 -166 -264 -11 -109 28 -159 279 -361 l48 -38 0 -548 0 -547 -29 -22 c-106 -78 -561 -471 -583 -504 -48 -71 -49 -175 -2 -244 28 -41 193 -240 293 -353 99 -112 198 -141 302 -89 39 20 277 214 577 470 l102 88 743 0 742 0 120 -101 c66 -56 147 -124 180 -152 73 -61 109 -77 177 -77 106 1 124 15 324 254 188 226 191 229 205 291 25 113 -6 163 -204 325 l-116 95 -1 561 0 560 97 80 c53 43 131 108 173 144 42 36 125 106 184 155 124 104 156 154 156 242 0 80 -23 117 -213 342 -195 231 -214 246 -317 246 -78 0 -103 -13 -228 -119 -48 -41 -184 -156 -302 -255 l-214 -181 -318 0 -318 0 0 328 0 327 46 24 c157 84 194 317 73 455 -70 80 -190 118 -298 96z m87 -307 c-4 -44 -23 -54 -39 -19 -15 32 -6 56 21 56 18 0 21 -5 18 -37z m1584 -730 c43 -43 78 -83 78 -89 0 -6 9 -19 20 -29 12 -10 30 -34 41 -52 38 -62 25 -80 -196 -267 -167 -141 -271 -259 -325 -366 -12 -25 -26 -53 -31 -62 -5 -10 -9 -32 -9 -50 -1 -109 -36 -104 -126 20 -101 140 -183 231 -274 306 -126 104 -133 125 -53 145 74 18 151 60 157 86 3 12 30 38 61 59 31 20 140 106 243 190 285 233 288 234 414 109z m-2732 -184 c19 -12 65 -43 101 -70 36 -27 92 -64 124 -84 32 -19 63 -45 69 -57 8 -16 31 -29 73 -43 100 -32 100 -47 0 -127 -124 -97 -232 -213 -321 -346 -59 -88 -78 -101 -100 -70 -9 12 -16 37 -16 55 0 18 -4 41 -9 51 -5 9 -19 39 -32 67 -25 52 -104 160 -189 258 -67 77 -66 96 8 194 139 186 205 224 292 172z m1338 -405 c813 -144 1056 -1016 403 -1452 -679 -454 -1709 12 -1611 729 68 498 618 827 1208 723z m-1317 -1256 c75 -120 149 -206 268 -309 181 -157 188 -175 81 -219 -84 -33 -154 -81 -260 -175 -47 -42 -134 -114 -195 -160 -60 -46 -135 -109 -165 -139 -30 -31 -62 -56 -71 -56 -10 0 -21 -9 -24 -20 -9 -29 -101 -29 -110 0 -3 11 -14 20 -23 20 -9 0 -29 19 -44 43 -15 24 -50 65 -78 91 -125 118 -131 231 -16 280 136 59 479 406 516 522 7 21 16 47 21 56 5 10 9 29 9 42 0 87 44 99 91 24z m2274 41 c4 -5 11 -34 16 -62 17 -105 22 -122 55 -176 18 -31 65 -92 104 -135 38 -43 70 -83 70 -87 0 -4 11 -20 25 -35 47 -50 23 -121 -80 -240 -128 -149 -196 -148 -373 4 -79 68 -165 125 -244 162 -79 36 -84 52 -35 97 17 16 48 47 69 69 20 21 71 73 114 114 42 41 115 126 161 188 80 106 103 126 118 101z"/> <path d="M1598 2049 c-317 -33 -446 -286 -220 -430 217 -137 600 -78 683 106 85 186 -158 355 -463 324z"/> <path d="M2558 2046 c-205 -55 -261 -323 -94 -451 197 -150 473 41 402 278 -38 127 -181 207 -308 173z"/> </g> </svg>